<svg width="24" height="24" viewBox="0 0 24 24" fill="none" xmlns="http://www.w3.org/2000/svg">
<g class="icoList">
<path d="M8 6H21M8 12H21M8 18H21" stroke="black" stroke-width="2" stroke-linecap="round" class="strokeBasic"></path>
<path d="M6 6C6 6.82843 5.32843 7.5 4.5 7.5C3.67157 7.5 3 6.82843 3 6C3 5.17157 3.67157 4.5 4.5 4.5C5.32843 4.5 6 5.17157 6 6Z" fill="black" class="fillPoint"></path>
<path d="M6 12C6 12.8284 5.32843 13.5 4.5 13.5C3.67157 13.5 3 12.8284 3 12C3 11.1716 3.67157 10.5 4.5 10.5C5.32843 10.5 6 11.1716 6 12Z" fill="black" class="fillPoint"></path>
<path d="M6 18C6 18.8284 5.32843 19.5 4.5 19.5C3.67157 19.5 3 18.8284 3 18C3 17.1716 3.67157 16.5 4.5 16.5C5.32843 16.5 6 17.1716 6 18Z" fill="black" class="fillPoint"></path>
</g>
</svg>