<svg width="24" height="24" viewBox="0 0 24 24" fill="none" xmlns="http://www.w3.org/2000/svg">
<g class="icoMagic">
<path d="M2.50049 18.665L10.3156 10.8499L13.1514 13.6856L5.34763 21.4894C5.34156 21.4946 5.33714 21.4974 5.33465 21.4987C5.33297 21.4973 5.33087 21.4954 5.32839 21.4929L2.50049 18.665ZM14.5656 12.2714L11.7299 9.43564L13.6549 7.51056C13.6641 7.50269 13.6695 7.50048 13.6702 7.50022C13.6704 7.50011 13.6706 7.50005 13.6707 7.50001C13.6708 7.50001 13.671 7.5 13.6713 7.5C13.672 7.5 13.6721 7.50006 13.6719 7.50001C13.6716 7.49995 13.6717 7.49994 13.6724 7.50022C13.673 7.50048 13.6785 7.50269 13.6876 7.51057L16.5034 10.3264C16.5034 10.3264 16.5035 10.3265 16.5035 10.3266C16.5036 10.3275 16.5038 10.3287 16.5038 10.33C16.5038 10.3313 16.5036 10.3325 16.5035 10.3334C16.5035 10.3335 16.5034 10.3336 16.5034 10.3336L14.5656 12.2714Z" stroke="black" stroke-width="2" class="strokeBasic"></path>
<path d="M19.5012 7.5L20.4412 5.44L22.5012 4.5L20.4412 3.56L19.5012 1.5L18.5612 3.56L16.5012 4.5L18.5612 5.44L19.5012 7.5Z" fill="black"  class="fillPoint"></path>
<path d="M8.00122 7.5L8.94122 5.44L11.0012 4.5L8.94122 3.56L8.00122 1.5L7.06122 3.56L5.00122 4.5L7.06122 5.44L8.00122 7.5Z" fill="black"  class="fillPoint"></path>
<path d="M19.5012 13L18.5612 15.06L16.5012 16L18.5612 16.94L19.5012 19L20.4412 16.94L22.5012 16L20.4412 15.06L19.5012 13Z" fill="black"  class="fillPoint"></path>
</g>
</svg>