<svg width="24" height="24" viewBox="0 0 24 24" fill="none" xmlns="http://www.w3.org/2000/svg">
<g class="icoMapLine">
<path d="M4 8.18948C4 9.37899 4 13.999 4 15.9995C4 18 5.5 19.9995 8 19.9995C10.5 19.9995 12 18 12 15.9995C12 13.999 12 9.99899 12 7.99948C12 5.99997 13.5 3.99948 16 3.99948C18.5 3.99948 20 5.99997 20 8C20 10 20 15.8195 20 15.8195" stroke="black" stroke-width="2" class="strokeBasic"></path>
<path d="M6 7.99997L5 7.99948H4V6.18948C4 4.99997 4.8 4.00046 6 3.99997C7.2 3.99948 8 4.99997 8 6.20948C8 6.99997 7.17 7.99997 6 7.99997Z" stroke="black" stroke-width="2" class="strokePoint"></path>
<path d="M18.17 15.9995H19H20V17.8195C20 19 19 19.9995 18 19.9995C17 19.9995 16 19.2803 16 18C16 16.7196 17 15.9995 18.17 15.9995Z" stroke="black" stroke-width="2" class="strokePoint"></path>
</g>
</svg>