<svg width="24" height="24" viewBox="0 0 24 24" fill="none" xmlns="http://www.w3.org/2000/svg">
<g class="icoSet">
<path d="M18.1671 12.856L18.0967 13.4185L18.5433 13.7677L20.3059 15.1461L18.7393 17.8563L16.662 17.022L16.1397 16.8123L15.6893 17.15C15.221 17.5012 14.7347 17.7938 14.2201 18.0047L13.6907 18.2217L13.6095 18.7881L13.2923 21H10.1664L9.84921 18.7881L9.76799 18.2217L9.23856 18.0047C8.71696 17.7909 8.23381 17.5072 7.77905 17.1574L7.32649 16.8093L6.79666 17.022L4.71935 17.8563L3.15275 15.1461L4.91534 13.7677L5.36193 13.4185L5.29162 12.856C5.25418 12.5564 5.22934 12.2719 5.22934 12C5.22934 11.7281 5.25418 11.4436 5.29162 11.144L5.36193 10.5815L4.91534 10.2323L3.15275 8.85392L4.71935 6.1437L6.79666 6.97796L7.31901 7.18774L7.76934 6.85C8.23764 6.49878 8.724 6.20619 9.23856 5.99531L9.76799 5.77832L9.84921 5.21194L10.1664 3H13.2923L13.6095 5.21194L13.6907 5.77832L14.2201 5.99531C14.7417 6.20907 15.2249 6.49281 15.6796 6.84262L16.1322 7.19074L16.662 6.97796L18.7393 6.1437L20.3059 8.85393L18.5433 10.2323L18.0967 10.5815L18.1671 11.144C18.2046 11.4445 18.2293 11.7187 18.2293 12C18.2293 12.2813 18.2046 12.5555 18.1671 12.856Z" stroke="black" stroke-width="2" class="strokeBasic"></path>
<circle cx="12" cy="12" r="3" stroke="black" stroke-width="2" class="strokePoint"></circle>
</g>
</svg>